<svg xmlns="http://www.w3.org/2000/svg" viewBox="0 0 1500 500">
  <path fill="#ffc100" fill-rule="nonzero" d="M222.46 374 263 285l83.77 33.01L370.95 374H409L299.01 129 185 374ZM334 285h-71l36.33-79zm119.43 93c14.12 0 26.18-4.49 36.16-13.47 10.27-9.48 15.41-21.25 15.41-35.32 0-10.97-3.06-19.7-9.19-26.19-6.12-6.48-18.03-13.57-35.72-21.25-12.84-5.49-19.26-11.03-19.26-16.61 0-3.2 1.09-5.82 3.26-7.86a11.05 11.05 0 0 1 7.85-3.07c6.43 0 11.81 4.5 16.16 13.47l27.56-14.82c-8.99-19.25-22.72-28.88-41.2-28.88-12.54 0-23.21 4.14-32 12.42-8.6 8.28-12.9 18.76-12.9 31.43 0 9.58 2.52 17.41 7.56 23.5 3.95 4.79 10.77 9.58 20.45 14.36 3.46 1.7 6.87 3.35 10.22 4.94 3.36 1.6 6.72 3.25 10.08 4.94 8.7 5.19 13.04 10.78 13.04 16.76 0 10.38-5.63 15.57-16.9 15.57-5.62 0-10.46-1.9-14.52-5.69-2.07-1.9-5.08-6.33-9.04-13.32L402 342.23c10.08 23.85 27.22 35.77 51.43 35.77Zm94.51-4v-56.17l5.43-5.4L601.95 374H646l-68.49-84.63 63.81-61.27h-45.56l-47.82 47.19V121H514v253zm212.3 5c21.92 0 42.84-5.64 62.76-16.93v-42.1a175.77 175.77 0 0 1-16.21 12.29 90 90 0 0 1-14.87 8.09c-8.57 4-18.98 6-31.23 6-23.7 0-43.73-8.35-60.07-25.03-16.34-16.68-24.5-37.15-24.5-61.42 0-24.57 8.16-45.34 24.5-62.32 16.24-17.08 36.21-25.62 59.92-25.62 21.52 0 42.34 8.44 62.46 25.32v-41.35C803.67 144.64 783.65 139 762.93 139c-37.95 0-68.88 14.13-92.8 42.4-19.42 23.07-29.13 49.34-29.13 78.8 0 32.86 11.6 60.92 34.82 84.2 23.3 23.06 51.45 34.6 84.42 34.6ZM875 374V121h-34v253zm84.52 4c15.94 0 30.84-6.49 44.7-19.46v15.27H1038V228.04h-33.79v16.91c-13.45-13.97-28.65-20.95-45.6-20.95-19.63 0-35.97 7.28-49.03 21.85-13.05 14.57-19.58 32.78-19.58 54.63 0 22.25 6.53 40.8 19.58 55.67 13.16 14.57 29.8 21.85 49.94 21.85Zm4.73-29c-11.67 0-21.35-4.46-29.03-13.39-7.48-8.82-11.22-20.25-11.22-34.29 0-13.13 3.84-24.16 11.52-33.08 7.78-8.83 17.46-13.24 29.03-13.24 12.27 0 22.25 4.36 29.93 13.08 7.68 8.93 11.52 20.26 11.52 34 0 13.73-3.84 25.06-11.52 33.99-7.68 8.62-17.76 12.93-30.23 12.93Zm139.18 29c14.12 0 26.18-4.49 36.16-13.47 10.27-9.48 15.41-21.25 15.41-35.32 0-10.97-3.06-19.7-9.19-26.19-6.12-6.48-18.03-13.57-35.71-21.25-12.85-5.49-19.27-11.03-19.27-16.61 0-3.2 1.09-5.82 3.26-7.86a11.05 11.05 0 0 1 7.85-3.07c6.43 0 11.81 4.5 16.16 13.47l27.56-14.82c-8.99-19.25-22.72-28.88-41.2-28.88-12.54 0-23.21 4.14-32 12.42-8.6 8.28-12.9 18.76-12.9 31.43 0 9.58 2.52 17.41 7.56 23.5 3.95 4.79 10.77 9.58 20.45 14.36 3.46 1.7 6.86 3.35 10.22 4.94 3.36 1.6 6.72 3.25 10.08 4.94 8.7 5.19 13.04 10.78 13.04 16.76 0 10.38-5.63 15.57-16.9 15.57-5.62 0-10.46-1.9-14.52-5.69-2.07-1.9-5.08-6.33-9.04-13.32L1052 342.23c10.08 23.85 27.22 35.77 51.43 35.77Zm103 0c14.12 0 26.18-4.49 36.16-13.47 10.27-9.48 15.41-21.25 15.41-35.32 0-10.97-3.06-19.7-9.19-26.19-6.12-6.48-18.03-13.57-35.71-21.25-12.85-5.49-19.27-11.03-19.27-16.61 0-3.2 1.09-5.82 3.26-7.86a11.05 11.05 0 0 1 7.85-3.07c6.43 0 11.81 4.5 16.16 13.47l27.56-14.82c-8.99-19.25-22.72-28.88-41.2-28.88-12.54 0-23.21 4.14-32 12.42-8.6 8.28-12.9 18.76-12.9 31.43 0 9.58 2.52 17.41 7.56 23.5 3.95 4.79 10.77 9.58 20.45 14.36 3.46 1.7 6.86 3.35 10.22 4.94 3.36 1.6 6.72 3.25 10.08 4.94 8.7 5.19 13.04 10.78 13.04 16.76 0 10.38-5.63 15.57-16.9 15.57-5.62 0-10.46-1.9-14.52-5.69-2.07-1.9-5.08-6.33-9.04-13.32L1155 342.23c10.08 23.85 27.22 35.77 51.43 35.77Zm88.07 0c5.7 0 10.52-1.97 14.45-5.9a19.9 19.9 0 0 0 6.05-14.6c0-5.6-2.02-10.42-6.05-14.45a19.72 19.72 0 0 0-14.45-6.05c-5.6 0-10.42 2.02-14.45 6.05a19.56 19.56 0 0 0-6.05 14.3c0 5.9 1.97 10.82 5.9 14.75 3.93 3.93 8.8 5.9 14.6 5.9z" display="inline"/>
</svg>
